Coordinates
version=1
nRows=17
nColumns=36
inDegrees=yes

Units are S.I. units (second, meters, Newtons, ...)
If the header above contains a line with 'inDegrees', this indicates whether rotational values are in degrees (yes) or radians (no).

endheader
time	pelvis_tilt	pelvis_list	pelvis_rotation	pelvis_tx	pelvis_ty	pelvis_tz	hip_flexion_r	hip_adduction_r	hip_rotation_r	knee_angle_r	knee_angle_r_beta	ankle_angle_r	subtalar_angle_r	mtp_angle_r	hip_flexion_l	hip_adduction_l	hip_rotation_l	knee_angle_l	knee_angle_l_beta	ankle_angle_l	subtalar_angle_l	mtp_angle_l	lumbar_extension	lumbar_bending	lumbar_rotation	arm_flex_r	arm_add_r	arm_rot_r	elbow_flex_r	pro_sup_r	arm_flex_l	arm_add_l	arm_rot_l	elbow_flex_l	pro_sup_l
     44.83333330	      2.42424088	     -3.04144113	     -2.14890423	      0.66895153	      0.80267031	      0.70431722	     24.75389472	      3.43469661	      7.60452913	      6.76821414	      0.11812762	      1.47370122	    -10.11675065	     -7.49999987	    -13.02286648	     -1.07209728	      8.61048777	      6.75243013	      0.11785214	     17.84133015	     -6.14487583	     -7.49999987	    -13.17032063	      5.99948764	     -6.71565801	      5.03790995	    -11.91756136	     -1.16877166	     12.85877215	     98.05293521	     12.80310663	    -16.13976955	     -1.82933457	     17.63063971	     92.25353672
     44.85000000	      2.12378020	     -3.03060255	     -2.42231234	      0.66971178	      0.79940602	      0.70495538	     25.40548656	      3.08938780	      8.75254103	      4.13490109	      0.07216764	      2.07351935	     -9.58638035	     -7.49999987	    -13.89274562	     -1.10233216	      8.22881682	      7.17933361	      0.12530301	     18.40213920	     -6.36336249	     -7.49999987	    -12.60460096	      6.04372845	     -6.92110523	      4.44807842	    -11.84718732	     -1.23531712	     12.53903069	     98.01289067	     12.81352085	    -16.36704529	     -1.86026845	     17.77046212	     92.25838726
     44.86666670	      2.36799589	     -3.42171358	     -2.71316564	      0.67088638	      0.79672330	      0.70589116	     25.53605346	      3.31852182	      8.97141225	      3.18368089	      0.05556571	      2.29942918	     -9.23906929	     -7.49999987	    -15.13774859	     -1.51639329	      7.04387034	      7.97000958	      0.13910291	     19.43118239	     -5.46173662	     -7.49999987	    -12.69242680	      6.56763871	     -7.03080539	      4.28535299	    -11.91675503	     -0.97830255	     11.70498534	     96.64054145	     12.83823198	    -16.45297469	     -1.09735740	     18.05277653	     91.44786733
     44.88333330	      2.32749873	     -3.80846029	     -2.90790719	      0.67078895	      0.79312360	      0.70734091	     26.18064469	      3.74512821	      8.45858176	      4.21764116	      0.07361172	      2.34119298	     -9.13389927	     -7.49999987	    -15.69510715	     -1.89997877	      6.06110594	      9.46897620	      0.16526481	     19.99208766	     -5.53300461	     -7.49999987	    -12.60615858	      7.11069956	     -7.17046198	      3.82937983	    -12.09582958	     -1.08505948	     11.58583456	     96.48119227	     12.81097632	    -16.28538222	     -1.10231172	     18.39782169	     91.42392768
     44.90000000	      2.48270289	     -4.22095574	     -3.00408658	      0.67036025	      0.78981059	      0.70967108	     26.70032418	      4.40522108	      7.24589816	      6.81324142	      0.11891350	      1.92900703	     -9.40608671	     -7.49999987	    -16.23353636	     -2.35771703	      4.84663228	     11.58227036	      0.20214875	     19.96108982	     -5.44941307	     -7.49999987	    -12.81922280	      7.64789167	     -7.44409244	      3.56275821	    -12.30808924	     -1.17978481	     11.11306458	     96.56181141	     12.86611518	    -16.06404326	     -1.02911482	     18.43842161	     91.60838213
     44.91666670	      1.99643961	     -4.32812796	     -3.10371018	      0.67134897	      0.78731546	      0.71214092	     28.08678694	      4.89587888	      5.54864727	     10.52542038	      0.18370324	      1.45182197	     -9.06305660	     -7.49999987	    -16.02314186	     -2.63957853	      3.49312120	     13.93044623	      0.24313215	     19.18952323	     -4.98918797	     -7.49999987	    -12.13220810	      7.83578229	     -7.85116196	      3.10085083	    -12.50978316	     -1.08828886	     10.03929056	     95.62383404	     12.64755214	    -15.86487035	     -0.35324816	     18.19962979	     91.66322815
     44.93333330	      1.96125153	     -4.34695726	     -3.03661440	      0.67307604	      0.78728183	      0.71344092	     28.83642065	      5.20177335	      4.10338746	     14.18425215	      0.24756190	      0.74475298	     -9.06500801	     -7.49999987	    -16.29148576	     -2.83859670	      2.85044983	     16.19641771	      0.28268082	     17.23618980	     -5.33516420	     -7.49999987	    -12.08866621	      7.89999818	     -8.15904697	      2.47932681	    -12.92191126	     -1.20176921	      9.55181435	     95.77916035	     12.59020368	    -15.56716234	     -0.22779885	     17.97614769	     91.95404022
     44.95000000	      1.45444575	     -4.13304265	     -3.08018367	      0.67569108	      0.78820821	      0.71426127	     29.96065200	      5.21606013	      2.81924116	     17.66715523	      0.30835003	      0.59339711	     -8.33150422	     -7.49999987	    -16.04629320	     -2.81579969	      2.44451240	     18.28297207	      0.31909806	     14.44222577	     -5.77426326	     -7.49999987	    -11.33751721	      7.69134104	     -8.30780929	      1.79326773	    -13.46235279	     -1.35667180	      8.79225872	     95.95473794	     12.38262249	    -15.15232034	      0.09102787	     17.41448980	     92.38945119
     44.96666670	      1.01850376	     -3.96679465	     -3.10563314	      0.67856282	      0.78940284	      0.71515954	     30.74443206	      5.16538415	      1.80360647	     20.82738435	      0.36350643	      0.90848344	     -7.70309170	     -7.49999987	    -15.50110047	     -2.91597024	      1.93580900	     20.88049441	      0.36443338	     11.40486382	     -5.76564159	     -7.49999987	    -10.66614474	      7.58765868	     -8.35343200	      1.21633963	    -14.09107050	     -1.49547299	      8.18150940	     96.08153653	     12.21978862	    -14.71368517	      0.51572388	     16.81297029	     92.80456712
     44.98333330	      0.64226739	     -3.86596237	     -3.14043678	      0.68064138	      0.79053446	      0.71655492	     31.15802634	      5.11837453	      1.03592650	     23.63535313	      0.41251473	      1.64706089	     -7.08514545	     -7.49999987	    -14.63932784	     -3.17338771	      1.28310392	     23.85691271	      0.41638168	      8.30489905	     -5.33195547	     -7.49999987	     -9.99971614	      7.55048236	     -8.22463645	      0.70830779	    -14.68259417	     -1.62136284	      7.76599696	     96.15583830	     12.05183648	    -14.21609200	      0.97030189	     16.26774161	     93.15028854
     45.00000000	      0.89899607	     -4.08716601	     -3.18468994	      0.68142274	      0.79360402	      0.71894862	     30.28252541	      5.44547750	      0.75765412	     25.56572463	      0.44620607	      2.16536031	     -7.28263479	     -7.49999987	    -14.16197116	     -3.88300072	      0.27863221	     26.95401098	      0.47043624	      4.90157509	     -4.50432943	     -7.49999987	    -10.17485405	      7.85867253	     -8.10148468	      0.63480948	    -15.18192513	     -1.66255324	      7.65239541	     96.15630470	     11.80116248	    -13.77182607	      1.08735151	     16.11524626	     93.20748336
     45.01666670	      0.35175083	     -4.10116594	     -3.20234121	      0.68210135	      0.79753829	      0.72189419	     29.99773906	      5.51062731	      0.33793201	     27.21629065	      0.47501388	      3.65939572	     -6.47628907	     -7.49999987	    -12.01578132	     -4.51559713	     -0.36941062	     31.08618418	      0.54255627	      1.74396142	     -3.91505627	     -7.49999987	     -9.15734545	      7.90063639	     -7.32642426	     -0.10801789	    -15.57080236	     -2.20587982	      7.57754409	     96.19117719	     12.11542519	    -13.14025338	      3.52726597	     14.86894681	     94.39694524
     45.03333330	      0.64473900	     -4.26420178	     -3.34851525	      0.68418089	      0.80361752	      0.72509816	     28.07997152	      5.92674352	      0.54289874	     27.50995248	      0.48013925	      4.62316904	     -6.58892645	     -7.49999987	    -10.56564171	     -5.33783552	     -1.20502102	     35.11104266	      0.61280330	     -1.62415573	     -3.38191873	     -7.49999987	     -9.34031654	      7.91331786	     -6.91644067	     -0.19137806	    -15.75241348	     -2.20681618	      7.93466444	     96.02254280	     11.66115785	    -12.73590798	      3.58693526	     14.90601051	     94.25879940
     45.05000000	      0.87000709	     -4.82778037	     -3.09982127	      0.68915748	      0.80949904	      0.72732187	     25.59860903	      6.50257199	      0.14057595	     26.56005851	      0.46356047	      5.31373349	     -6.53603472	     -7.49999987	     -8.54899735	     -6.55670919	     -1.40846672	     39.50393809	      0.68947379	     -4.12600164	     -3.87527245	     -7.49999987	     -9.18927888	      8.57053319	     -6.32916336	     -0.43148499	    -16.12129451	     -2.15580576	      7.74250132	     95.92524607	     11.29651156	    -11.73800802	      3.83943596	     14.24484377	     94.25362457
     45.06666670	      1.29277763	     -5.06574367	     -2.84639120	      0.69598766	      0.81356646	      0.73041627	     22.73926053	      6.81933478	     -0.05507372	     25.23950690	      0.44051250	      6.05396820	     -6.51716102	     -7.49999987	     -6.33181492	     -7.43391472	     -1.76336824	     43.96669799	      0.76736364	     -6.26262017	     -4.66700791	     -7.49999987	     -9.15694056	      8.64934133	     -5.88447625	     -0.63819976	    -16.24579240	     -2.06461124	      7.88465605	     95.76096104	     10.74861438	    -11.02192301	      4.13116190	     13.49155541	     94.20596015
     45.08333330	      1.67060200	     -5.16777687	     -2.33290165	      0.70217239	      0.81644163	      0.73392128	     19.75399620	      6.92401963	     -0.50248705	     23.65630540	      0.41288042	      6.90733977	     -6.28418875	     -7.49999987	     -3.47036887	     -8.17378940	     -1.95514220	     48.74349054	      0.85073440	     -7.94469399	     -5.91779789	     -7.49999987	     -8.83991780	      8.52201097	     -5.65714565	     -0.90065976	    -16.29753529	     -1.77823023	      7.97590439	     95.26403512	     10.43679722	    -10.35903220	      4.85755443	     11.95564961	     93.97593954
     45.10000000	      1.76805115	     -5.16185378	     -1.86737983	      0.70555250	      0.81774550	      0.73763674	     17.02127121	      6.98714109	     -0.75150375	     22.04656675	      0.38478518	      8.01110137	     -5.94272060	     -7.49999987	     -0.01692759	     -8.77542891	     -2.19684084	     53.38097144	      0.93167371	     -8.66012075	     -7.40337063	     -7.49999987	     -8.21402543	      8.29378159	     -5.39739043	     -1.34135066	    -16.30177742	     -1.60217967	      8.52172960	     94.60362143	      9.64747281	     -9.90838473	      5.21184353	     11.81543556	     93.43349708
